<?xml version="1.0" standalone="no"?><!DOCTYPE svg PUBLIC "-//W3C//DTD SVG 1.1//EN" "http://www.w3.org/Graphics/SVG/1.1/DTD/svg11.dtd"><svg t="1722610978672" class="icon" viewBox="0 0 1024 1024" version="1.1" xmlns="http://www.w3.org/2000/svg" p-id="4832" xmlns:xlink="http://www.w3.org/1999/xlink" width="200" height="200"><path d="M512 0C230.4 0 0 230.4 0 512s230.4 512 512 512 512-230.4 512-512S793.6 0 512 0zM537.6 729.6c-12.8 6.4-19.2 12.8-32 12.8-12.8 0-25.6-6.4-32-12.8-6.4-6.4-12.8-19.2-12.8-32 0-12.8 6.4-25.6 12.8-32 6.4-6.4 19.2-12.8 32-12.8 12.8 0 25.6 6.4 32 12.8 6.4 6.4 12.8 19.2 12.8 32C550.4 710.4 550.4 723.2 537.6 729.6zM633.6 480C627.2 492.8 608 505.6 576 531.2 563.2 544 556.8 556.8 550.4 563.2c0 6.4-6.4 12.8-6.4 25.6 0 19.2-19.2 32-32 32-19.2 0-38.4-19.2-32-38.4 0-12.8 6.4-25.6 6.4-32 6.4-19.2 32-44.8 70.4-76.8l12.8-12.8c12.8-12.8 19.2-32 19.2-44.8 0-19.2-6.4-38.4-19.2-51.2C556.8 345.6 537.6 339.2 512 339.2c-32 0-51.2 6.4-64 25.6C441.6 371.2 435.2 384 435.2 403.2c0 19.2-19.2 32-32 32-19.2 0-38.4-19.2-32-44.8C377.6 358.4 390.4 339.2 403.2 320c25.6-25.6 64-38.4 108.8-38.4 44.8 0 76.8 12.8 102.4 32 25.6 25.6 38.4 51.2 38.4 89.6C652.8 435.2 646.4 460.8 633.6 480z" fill="#3D3D3D" p-id="4833"></path></svg>