<?xml version="1.0" standalone="no"?><!DOCTYPE svg PUBLIC "-//W3C//DTD SVG 1.1//EN" "http://www.w3.org/Graphics/SVG/1.1/DTD/svg11.dtd"><svg t="1719396443524" class="icon" viewBox="0 0 1024 1024" version="1.1" xmlns="http://www.w3.org/2000/svg" p-id="5004" xmlns:xlink="http://www.w3.org/1999/xlink" width="200" height="200">
<g>
<path d="M418.91 512a93.09 93.09 0 1 0 186.18 0 93.09 93.09 0 1 0-186.18 0z" fill="#515151" p-id="5005"></path><path d="M512 23.273A488.727 488.727 0 1 0 1000.727 512 488.727 488.727 0 0 0 512 23.273z m0 930.909A442.182 442.182 0 1 1 954.182 512 442.182 442.182 0 0 1 512 954.182z" fill="#515151" p-id="5006"></path><path d="M512 139.636A372.364 372.364 0 1 0 884.364 512 372.364 372.364 0 0 0 512 139.636z m324.655 349.091H626.036a116.364 116.364 0 0 0-37.003-63.302L694.69 242.27a325.818 325.818 0 0 1 141.964 246.458zM512 186.182a323.258 323.258 0 0 1 142.196 33.047L548.538 402.153a106.822 106.822 0 0 0-73.076 0L369.804 219.229A323.258 323.258 0 0 1 512 186.182zM581.818 512a71.447 71.447 0 1 1-4.189-23.273A69.818 69.818 0 0 1 581.82 512zM329.31 242.27l105.658 183.155a116.364 116.364 0 0 0-37.003 63.302H187.345A325.818 325.818 0 0 1 329.31 242.27zM187.345 535.272h210.619a116.364 116.364 0 0 0 37.003 63.302L329.31 781.73a325.818 325.818 0 0 1-141.964-246.458zM512 837.818a323.258 323.258 0 0 1-142.196-33.047l105.658-182.924a106.822 106.822 0 0 0 73.076 0l105.658 182.924A323.258 323.258 0 0 1 512 837.818z m182.69-56.087L588.8 598.575a116.364 116.364 0 0 0 37.236-63.302h210.619A325.818 325.818 0 0 1 694.69 781.73z" fill="#515151" p-id="5007"></path>
 <animateTransform attributeName="transform"
                      type="rotate"
                      from="0 512 512" 
                      to="360 512 512"
                      dur="2s"
                      repeatCount="indefinite"/>
</g>


</svg>